Coordinates
version=1
nRows=65
nColumns=12
inDegrees=yes

Units are S.I. units (second, meters, Newtons, ...)
Angles are in degrees

endheader
time	SC_y	SC_z	SC_x	AC_y	AC_z	AC_x	GH_y	GH_z	GH_yy	EL_x	PS_y
       0.0              -40.83         0.1385           80.8          50.49          2.955         -15.18          168.5          23.49        -0.2463          99.74          97.73
   0.02003              -40.83         0.1388           80.8          50.49          2.954         -15.18          168.4          23.49        -0.2297          99.73          97.72
   0.04006              -40.83         0.1392           80.8          50.49          2.953         -15.18          168.4          23.49        -0.2121          99.73          97.72
   0.06009              -40.83         0.1395           80.8          50.49          2.953         -15.18          168.3          23.49        -0.1934          99.73          97.71
   0.08012              -40.83         0.1399           80.8          50.49          2.952         -15.18          168.3          23.48        -0.1734          99.73           97.7
    0.1002              -40.83         0.1404           80.8          50.48          2.951         -15.18          168.2          23.48        -0.1521          99.73          97.69
    0.1202              -40.83         0.1408           80.8          50.48           2.95         -15.18          168.1          23.48        -0.1294          99.73          97.68
    0.1402              -40.82         0.1413           80.8          50.48          2.949         -15.18          168.1          23.48        -0.1051          99.73          97.67
    0.1602              -40.82         0.1418           80.8          50.48          2.948         -15.18          168.0          23.47       -0.07908          99.73          97.66
    0.1803              -40.82         0.1424           80.8          50.48          2.947         -15.17          167.9          23.47       -0.05118          99.73          97.65
    0.2003              -40.82          0.143           80.8          50.48          2.945         -15.17          167.9          23.46        -0.0212          99.72          97.64
    0.2203              -40.82         0.1436           80.8          50.48          2.944         -15.17          167.8          23.46        0.01106          99.72          97.63
    0.2404              -40.82         0.1443           80.8          50.47          2.943         -15.17          167.7          23.45        0.04584          99.72          97.61
    0.2604              -40.82         0.1451           80.8          50.47          2.941         -15.17          167.6          23.45        0.08341          99.72           97.6
    0.2804              -40.82         0.1459           80.8          50.47          2.939         -15.17          167.5          23.44         0.1241          99.72          97.58
    0.3005              -40.81         0.1468           80.8          50.47          2.937         -15.17          167.3          23.44         0.1682          99.71          97.57
    0.3205              -40.81         0.1478           80.8          50.46          2.935         -15.17          167.2          23.43         0.2161          99.71          97.55
    0.3405              -40.81         0.1488           80.8          50.46          2.933         -15.17          167.1          23.43         0.2683          99.71          97.52
    0.3606              -40.81           0.15           80.8          50.46          2.931         -15.17          166.9          23.42         0.3253          99.71           97.5
    0.3806              -40.81         0.1512           80.8          50.45          2.928         -15.16          166.7          23.41         0.3877           99.7          97.48
    0.4006               -40.8         0.1526           80.8          50.45          2.925         -15.16          166.6           23.4         0.4562           99.7          97.45
    0.4206               -40.8         0.1541           80.8          50.45          2.922         -15.16          166.4          23.39         0.5316           99.7          97.42
    0.4407               -40.8         0.1558           80.8          50.44          2.919         -15.16          166.1          23.38         0.6149          99.69          97.39
    0.4607              -40.79         0.1576           80.8          50.44          2.915         -15.16          165.9          23.37         0.7072          99.69          97.35
    0.4807              -40.79         0.1597           80.8          50.43          2.911         -15.15          165.6          23.35         0.8098          99.68          97.31
    0.5008              -40.79          0.162           80.8          50.42          2.906         -15.15          165.3          23.34         0.9243          99.68          97.26
    0.5208              -40.78         0.1646           80.8          50.42          2.901         -15.15          164.9          23.32          1.053          99.67          97.21
    0.5408              -40.78         0.1675           80.8          50.41          2.895         -15.14          164.5           23.3          1.197          99.66          97.15
    0.5609              -40.77         0.1707           80.8           50.4          2.888         -15.14          164.1          23.28           1.36          99.66          97.09
    0.5809              -40.76         0.1744           80.8          50.39           2.88         -15.13          163.6          23.25          1.545          99.65          97.01
    0.6009              -40.76         0.1787           80.8          50.37          2.871         -15.13          163.0          23.23          1.756          99.64          96.93
     0.621              -40.75         0.1836           80.8          50.36          2.861         -15.12          162.4          23.19          1.999          99.62          96.83
     0.641              -40.74         0.1892           80.8          50.34          2.849         -15.12          161.6          23.16          2.279          99.61          96.72
     0.661              -40.72         0.1957           80.8          50.33          2.836         -15.11          160.7          23.11          2.604          99.59          96.59
     0.681              -40.71         0.2033          80.79           50.3           2.82          -15.1          159.7          23.06          2.984          99.57          96.44
    0.7011              -40.69         0.2123          80.79          50.28          2.801         -15.09          158.5           23.0          3.433          99.55          96.26
    0.7211              -40.67         0.2231          80.79          50.25          2.779         -15.07          157.0          22.93          3.966          99.52          96.05
    0.7411              -40.65         0.2359          80.79          50.21          2.752         -15.06          155.3          22.85          4.605          99.49          95.79
    0.7612              -40.62         0.2514          80.79          50.16           2.72         -15.04          153.2          22.74          5.379          99.45          95.48
    0.7812              -40.59         0.2704          80.78          50.11          2.681         -15.01          150.6          22.62          6.323          99.41           95.1
    0.8012              -40.54         0.2938          80.78          50.04          2.632         -14.98          147.5          22.46          7.489          99.35          94.64
    0.8213              -40.49         0.3229          80.77          49.96          2.572         -14.95          143.5          22.27          8.942          99.28          94.05
    0.8413              -40.42         0.3597          80.77          49.85          2.495          -14.9          138.5          22.02          10.77          99.18          93.32
    0.8613              -40.34         0.4064          80.76          49.72          2.398         -14.84          132.2          21.71           13.1          99.07          92.39
    0.8813              -40.23         0.4663          80.75          49.54          2.274         -14.77          124.1          21.32          16.08          98.92           91.2
    0.9014              -40.08          0.543          80.74          49.32          2.114         -14.67          113.8          20.81           19.9          98.73          89.67
    0.9214               -39.9         0.6411          80.72          49.04          1.911         -14.55          100.5          20.15          24.79          98.48          87.71
    0.9414              -39.68         0.7644           80.7          48.68          1.655         -14.39          83.82          19.34          30.93          98.17          85.26
    0.9615               -39.4         0.9146          80.68          48.25          1.343          -14.2           63.5          18.34          38.41           97.8          82.26
    0.9815              -39.08          1.089          80.65          47.74         0.9809         -13.98          39.95          17.18          47.09          97.36          78.79
     1.002              -38.73          1.277          80.62           47.2         0.5892         -13.74          14.45          15.93          56.48          96.89          75.03
     1.022              -38.38          1.466          80.59          46.66         0.1975         -13.51         -11.05          14.67          65.87          96.42          71.27
     1.042              -38.06           1.64          80.56          46.15        -0.1643         -13.29          -34.6          13.52          74.55          95.99           67.8
     1.062              -37.79           1.79          80.54          45.72        -0.4763          -13.1         -54.92          12.52          82.03          95.61          64.81
     1.082              -37.56          1.914          80.52          45.36        -0.7324         -12.94         -71.59           11.7          88.17          95.31          62.35
     1.102              -37.38          2.012           80.5          45.08        -0.9361         -12.82         -84.85          11.05          93.06          95.06           60.4
     1.122              -37.24          2.088          80.49          44.86         -1.096         -12.72         -95.23          10.54          96.88          94.87          58.87
     1.142              -37.13          2.148          80.48          44.68          -1.22         -12.65         -103.3          10.14          99.86          94.72          57.68
     1.162              -37.04          2.195          80.47          44.55         -1.317         -12.59         -109.6          9.829          102.2           94.6          56.74
     1.182              -36.97          2.232          80.47          44.44         -1.393         -12.54         -114.6          9.585          104.0          94.51          56.01
     1.202              -36.92          2.261          80.46          44.36         -1.454          -12.5         -118.6          9.391          105.5          94.44          55.43
     1.222              -36.88          2.284          80.46          44.29         -1.502         -12.47         -121.7          9.235          106.6          94.38          54.96
     1.242              -36.84          2.303          80.46          44.24         -1.542         -12.45         -124.3          9.109          107.6          94.33          54.59
     1.262              -36.81          2.319          80.45          44.19         -1.574         -12.43         -126.4          9.006          108.4           94.3          54.28
     1.282              -36.79          2.332          80.45          44.15         -1.601         -12.41         -128.1          8.921          109.0          94.26          54.02
